<svg width="478" height="436" viewBox="0 0 478 436" fill="none" xmlns="http://www.w3.org/2000/svg">
<path d="M246.504 -230V197.84C246.504 202.178 242.995 205.682 238.649 205.682C234.304 205.682 230.795 202.178 230.795 197.84V-230" stroke="#4060DD" stroke-width="1.75" stroke-miterlimit="10" stroke-linecap="round"/>
<path d="M267.395 -230V197.84C267.395 213.65 254.484 226.54 238.649 226.54C222.814 226.54 209.904 213.65 209.904 197.84V-230" stroke="#4060DD" stroke-width="1.75" stroke-miterlimit="10" stroke-linecap="round"/>
<path d="M288.285 -230V197.84C288.285 225.164 266.016 247.398 238.649 247.398C211.283 247.398 189.014 225.164 189.014 197.84V-230" stroke="#4060DD" stroke-width="1.75" stroke-miterlimit="10" stroke-linecap="round"/>
<path d="M309.175 -230V197.84C309.175 236.677 277.547 268.256 238.649 268.256C199.751 268.256 168.123 236.677 168.123 197.84V-230" stroke="#4060DD" stroke-width="1.75" stroke-miterlimit="10" stroke-linecap="round"/>
<path d="M330.066 -230V197.84C330.066 248.149 289.037 289.114 238.649 289.114C188.262 289.114 147.233 248.149 147.233 197.84V-230" stroke="#4060DD" stroke-width="1.75" stroke-miterlimit="10" stroke-linecap="round"/>
<path d="M1 -230V197.84C1 328.661 107.625 435.121 238.649 435.121C369.674 435.121 476.299 328.661 476.299 197.84V-230" stroke="#4060DD" stroke-width="1.75" stroke-miterlimit="10" stroke-linecap="round"/>
<path d="M350.956 -230V197.84C350.956 259.663 300.568 309.972 238.649 309.972C176.73 309.972 126.342 259.663 126.342 197.84V-230" stroke="#4060DD" stroke-width="1.75" stroke-miterlimit="10" stroke-linecap="round"/>
<path d="M21.8904 -230V197.84C21.8904 317.189 119.114 414.263 238.649 414.263C358.184 414.263 455.408 317.189 455.408 197.84V-230" stroke="#4060DD" stroke-width="1.75" stroke-miterlimit="10" stroke-linecap="round"/>
<path d="M371.847 -230V197.84C371.847 271.177 312.1 330.83 238.649 330.83C165.199 330.83 105.452 271.177 105.452 197.84V-230" stroke="#4060DD" stroke-width="1.75" stroke-miterlimit="10" stroke-linecap="round"/>
<path d="M42.7808 -230V197.84C42.7808 305.676 130.646 393.405 238.649 393.405C346.653 393.405 434.518 305.676 434.518 197.84V-230" stroke="#4060DD" stroke-width="1.75" stroke-miterlimit="10" stroke-linecap="round"/>
<path d="M392.737 -230V197.84C392.737 282.69 323.632 351.688 238.649 351.688C153.667 351.688 84.5617 282.69 84.5617 197.84V-230" stroke="#4060DD" stroke-width="1.75" stroke-miterlimit="10" stroke-linecap="round"/>
<path d="M413.627 -230V197.84C413.627 294.329 335.288 372.546 238.649 372.546C142.01 372.546 63.6712 294.329 63.6712 197.84V-230" stroke="#4060DD" stroke-width="1.75" stroke-miterlimit="10" stroke-linecap="round"/>
</svg>
